<svg width="18" height="12" viewBox="0 0 18 12" fill="none" xmlns="http://www.w3.org/2000/svg">
<path fill-rule="evenodd" clip-rule="evenodd" d="M16.6667 0.666687H15.6667C15.1144 0.666687 14.6667 1.1144 14.6667 1.66669V10.3334C14.6667 10.8856 15.1144 11.3334 15.6667 11.3334H16.6667C17.219 11.3334 17.6667 10.8856 17.6667 10.3334V1.66669C17.6667 1.1144 17.219 0.666687 16.6667 0.666687ZM11 2.99999H12C12.5522 2.99999 13 3.44771 13 3.99999V10.3333C13 10.8856 12.5522 11.3333 12 11.3333H11C10.4477 11.3333 9.99996 10.8856 9.99996 10.3333V3.99999C9.99996 3.44771 10.4477 2.99999 11 2.99999ZM7.33348 5.33348H6.33348C5.78119 5.33348 5.33348 5.78119 5.33348 6.33348V10.3335C5.33348 10.8858 5.78119 11.3335 6.33348 11.3335H7.33348C7.88576 11.3335 8.33348 10.8858 8.33348 10.3335V6.33348C8.33348 5.78119 7.88576 5.33348 7.33348 5.33348ZM2.66675 7.33349H1.66675C1.11446 7.33349 0.666748 7.7812 0.666748 8.33349V10.3335C0.666748 10.8858 1.11446 11.3335 1.66675 11.3335H2.66675C3.21903 11.3335 3.66675 10.8858 3.66675 10.3335V8.33349C3.66675 7.7812 3.21903 7.33349 2.66675 7.33349Z" fill="black"/>
</svg>
