<svg width="18" height="18" viewBox="0 0 18 18" fill="none" xmlns="http://www.w3.org/2000/svg">
<path d="M11.8125 9C11.8125 9.74592 11.5162 10.4613 10.9887 10.9887C10.4613 11.5162 9.74592 11.8125 9 11.8125C8.25408 11.8125 7.53871 11.5162 7.01126 10.9887C6.48382 10.4613 6.1875 9.74592 6.1875 9C6.1875 8.25408 6.48382 7.53871 7.01126 7.01126C7.53871 6.48382 8.25408 6.1875 9 6.1875C9.74592 6.1875 10.4613 6.48382 10.9887 7.01126C11.5162 7.53871 11.8125 8.25408 11.8125 9Z" fill="#CFCFCF"/>
<path d="M0 9.1875C0 9.1875 3.375 3 9 3C14.625 3 18 9.1875 18 9.1875C18 9.1875 14.625 15.375 9 15.375C3.375 15.375 0 9.1875 0 9.1875ZM9 13.125C10.0443 13.125 11.0458 12.7102 11.7842 11.9717C12.5227 11.2333 12.9375 10.2318 12.9375 9.1875C12.9375 8.14321 12.5227 7.14169 11.7842 6.40327C11.0458 5.66484 10.0443 5.25 9 5.25C7.95571 5.25 6.95419 5.66484 6.21577 6.40327C5.47734 7.14169 5.0625 8.14321 5.0625 9.1875C5.0625 10.2318 5.47734 11.2333 6.21577 11.9717C6.95419 12.7102 7.95571 13.125 9 13.125Z" fill="#CFCFCF"/>
</svg>
