<svg width="25" height="12" viewBox="0 0 25 12" fill="none" xmlns="http://www.w3.org/2000/svg">
<path opacity="0.4" fill-rule="evenodd" clip-rule="evenodd" d="M2.66667 1.33325H19.3333C20.2538 1.33325 21 2.07944 21 2.99992V8.99992C21 9.92039 20.2538 10.6666 19.3333 10.6666H2.66667C1.74619 10.6666 1 9.92039 1 8.99992V2.99992C1 2.07944 1.74619 1.33325 2.66667 1.33325ZM0 2.99992C0 1.52716 1.19391 0.333252 2.66667 0.333252H19.3333C20.8061 0.333252 22 1.52716 22 2.99992V8.99992C22 10.4727 20.8061 11.6666 19.3333 11.6666H2.66667C1.19391 11.6666 0 10.4727 0 8.99992V2.99992ZM24.328 5.99997C24.328 6.8731 23.8047 7.66119 22.9999 7.99997V3.99997C23.8047 4.33875 24.328 5.12684 24.328 5.99997Z" fill="black"/>
</svg>
