<svg width="16" height="12" viewBox="0 0 16 12" fill="none" xmlns="http://www.w3.org/2000/svg">
<path fill-rule="evenodd" clip-rule="evenodd" d="M8.33033 2.60786C10.5462 2.60796 12.6774 3.4594 14.2833 4.9862C14.4043 5.10407 14.5976 5.10258 14.7167 4.98286L15.8727 3.8162C15.933 3.75547 15.9666 3.67322 15.9661 3.58764C15.9656 3.50206 15.931 3.42021 15.87 3.3602C11.6549 -0.679351 5.0051 -0.679351 0.789998 3.3602C0.728939 3.42016 0.694296 3.50199 0.693733 3.58757C0.69317 3.67315 0.726734 3.75543 0.786998 3.8162L1.94333 4.98286C2.06236 5.10276 2.25581 5.10425 2.37666 4.9862C3.98282 3.4593 6.11422 2.60786 8.33033 2.60786ZM8.33036 6.40342C9.54785 6.40335 10.7219 6.85588 11.6244 7.67309C11.7464 7.78907 11.9387 7.78656 12.0577 7.66742L13.2124 6.50076C13.2732 6.43956 13.3069 6.35655 13.306 6.27028C13.3052 6.18402 13.2697 6.1017 13.2077 6.04176C10.4595 3.48537 6.20356 3.48537 3.45536 6.04176C3.39329 6.1017 3.35787 6.18406 3.35705 6.27035C3.35624 6.35664 3.39009 6.43965 3.45103 6.50076L4.60536 7.66742C4.72435 7.78656 4.91663 7.78907 5.0387 7.67309C5.94057 6.85642 7.11368 6.40393 8.33036 6.40342ZM10.6435 8.95722C10.6452 9.04373 10.6112 9.12713 10.5495 9.18773L8.55214 11.2034C8.49359 11.2626 8.41376 11.296 8.33047 11.296C8.24718 11.296 8.16735 11.2626 8.1088 11.2034L6.11114 9.18773C6.04942 9.12708 6.01548 9.04365 6.01731 8.95715C6.01914 8.87064 6.05658 8.78872 6.1208 8.73073C7.39637 7.65185 9.26456 7.65185 10.5401 8.73073C10.6043 8.78877 10.6417 8.87071 10.6435 8.95722Z" fill="black"/>
</svg>
